HIERARCHY
ROOT Root
{
	OFFSET 0.00000 0.00000 0.00000
	CHANNELS 6 Xposition Yposition Zposition Zrotation Xrotation Yrotation
	JOINT Hips
	{
		OFFSET 0 0 0	
		CHANNELS 3 Zrotation Xrotation Yrotation
		JOINT Spine
		{
			OFFSET 0 4 0	
			CHANNELS 3 Zrotation Xrotation Yrotation
			JOINT Spine1
			{
				OFFSET 0 19.4 0	
				CHANNELS 3 Zrotation Xrotation Yrotation
				JOINT Spine2
				{
					OFFSET 0 16.6 0	
					CHANNELS 3 Zrotation Xrotation Yrotation
					JOINT LeftCollar
					{
						OFFSET 0 10 0	
						CHANNELS 3 Zrotation Xrotation Yrotation
						JOINT LeftArm
						{
							OFFSET 15.6 -2 3	
							CHANNELS 3 Zrotation Xrotation Yrotation
							JOINT LeftForeArm
							{
								OFFSET 3.5 -27 -1	
								CHANNELS 3 Zrotation Xrotation Yrotation
								JOINT LeftHand
								{
									OFFSET 1 -27 1	
									CHANNELS 3 Zrotation Xrotation Yrotation
									End Site
									{
										OFFSET 0 -15 0
									}
								}
							}
						}
					}
					JOINT RightCollar
					{
						OFFSET 0 10 0	
						CHANNELS 3 Zrotation Xrotation Yrotation
						JOINT RightArm
						{
							OFFSET -15.6 -2 3	
							CHANNELS 3 Zrotation Xrotation Yrotation
							JOINT RightForeArm
							{
								OFFSET -3.5 -27 -1	
								CHANNELS 3 Zrotation Xrotation Yrotation
								JOINT RightHand
								{
									OFFSET -1 -27 1	
									CHANNELS 3 Zrotation Xrotation Yrotation
									End Site
									{
										OFFSET 0 -15 0
									}
								}
							}
						}
					}
					JOINT Neck
					{
						OFFSET 0 10 0	
						CHANNELS 3 Zrotation Xrotation Yrotation
						JOINT Head
						{
							OFFSET 0 12.7 3	
							CHANNELS 3 Zrotation Xrotation Yrotation
							End Site
							{
								OFFSET 0 12.7 3
							}
						}
					}
				}
			}
		}
	}
	JOINT LeftHip
	{
		OFFSET 0 0 0	
		CHANNELS 3 Zrotation Xrotation Yrotation
		JOINT LeftUpLeg
		{
			OFFSET 8.8 -6 0	
			CHANNELS 3 Zrotation Xrotation Yrotation
			JOINT LeftLeg
			{
				OFFSET 0 -39 2	
				CHANNELS 3 Zrotation Xrotation Yrotation
				JOINT LeftFoot
				{
					OFFSET 0 -43 -2	
					CHANNELS 3 Zrotation Xrotation Yrotation
					JOINT LeftFootFront
					{
						OFFSET 0 -7 8.5	
						CHANNELS 3 Zrotation Xrotation Yrotation
						End Site
						{
							OFFSET 0 -0.5 9
						}
					}
				}
				JOINT LeftHeel
				{
					OFFSET 0 -43 -2	
					CHANNELS 3 Zrotation Xrotation Yrotation
					End Site
					{
						OFFSET 0 -7.5 -5
					}
				}
			}
		}
	}
	JOINT RightHip
	{
		OFFSET 0 0 0	
		CHANNELS 3 Zrotation Xrotation Yrotation
		JOINT RightUpLeg
		{
			OFFSET -8.8 -6 0	
			CHANNELS 3 Zrotation Xrotation Yrotation
			JOINT RightLeg
			{
				OFFSET 0 -39 2	
				CHANNELS 3 Zrotation Xrotation Yrotation
				JOINT RightFoot
				{
					OFFSET 0 -43 -2	
					CHANNELS 3 Zrotation Xrotation Yrotation
					JOINT RightFootFront
					{
						OFFSET 0 -7 8.5	
						CHANNELS 3 Zrotation Xrotation Yrotation
						End Site
						{
							OFFSET 0 -0.5 9
						}
					}
				}
				JOINT RightHeel
				{
					OFFSET 0 -43 -2	
					CHANNELS 3 Zrotation Xrotation Yrotation
					End Site
					{
						OFFSET 0 -7.5 -5
					}
				}
			}
		}
	}
}
MOTION
Frames: 24
Frame Time: 0.025
0 96.899 0 -0 0 -0 -3.6884 21.729 45.553 -7.3212 -5.6126 -2.4067 -7.3213 -5.6126 -2.4067 -6.1306 -4.736 -1.9724 -0 0 -0 -0 0 -0 11.501 -4.1544 4.9017 -1.1359 -3.0962 -3.3181 -0 0 -0 14.893 -4.8222 -12.042 -10.071 -0.32896 -9.8687 176.35 33.382 84.518 5.6432 4.6043 6.4932 -0.34982 -0.30421 5.0024 -3.6884 21.729 45.553 -8.5641 -24.619 -18.321 -2.5429 6.5144 18.384 -0 0 -0 -0 0 4.5357e-07 -0 0 -0 -3.6884 21.729 45.553 -12.78 -21.287 -8.4597 -2.3802 2.7454 -15.451 -0 0 -0 -0 0 1.7592e-07 -0 0 -0 
0 96.896 0 -0 0 -0 -3.7276 21.712 45.562 -7.3024 -5.5956 -2.3993 -7.3024 -5.5956 -2.3993 -6.1149 -4.7216 -1.9665 -0 0 -0 -0 0 -0 11.487 -4.2053 4.8837 -1.1367 -3.1092 -3.3142 -0 0 -0 14.881 -4.8815 -12.031 -10.058 -0.3376 -9.8818 176.33 33.377 84.528 5.635 4.5785 6.4872 -0.34353 -0.31487 5.0001 -3.7276 21.712 45.562 -8.5171 -24.628 -18.312 -2.5463 6.5072 18.373 -0 0 -0 -0 0 1.0405e-06 -0 0 -0 -3.7276 21.712 45.562 -12.743 -21.296 -8.4583 -2.3734 2.7447 -15.448 -0 0 -0 0 0 -1.6258e-07 -0 0 -0 
0 96.893 0 -0 0 -0 -3.7846 21.689 45.574 -7.2759 -5.5662 -2.3909 -7.2759 -5.5662 -2.3909 -6.0928 -4.6967 -1.9599 -0 0 -0 -0 0 -0 11.472 -4.2992 4.8609 -1.1311 -3.1039 -3.2873 -0 0 -0 14.867 -4.9811 -12.007 -10.032 -0.33954 -9.8927 176.3 33.375 84.542 5.6214 4.529 6.4805 -0.3367 -0.3386 4.9963 -3.7846 21.689 45.574 -8.4506 -24.642 -18.299 -2.548 6.495 18.363 -0 0 -0 -0 0 1.5074e-06 -0 0 -0 -3.7846 21.689 45.574 -12.689 -21.311 -8.4574 -2.3637 2.7438 -15.442 -0 0 -0 0 0 -9.9218e-08 -0 0 -0 
0 96.889 0 -0 0 -0 -3.8479 21.665 45.589 -7.2481 -5.5356 -2.382 -7.2481 -5.5356 -2.382 -6.0697 -4.6709 -1.9529 -0 0 -0 -0 0 -0 11.461 -4.4095 4.8307 -1.1288 -3.0819 -3.2511 -0 0 -0 14.855 -5.0878 -11.985 -10.01 -0.32457 -9.8886 176.26 33.386 84.569 5.6036 4.4695 6.4694 -0.33341 -0.37122 4.9881 -3.8479 21.665 45.589 -8.379 -24.659 -18.286 -2.5433 6.4769 18.368 -0 0 -0 0 0 -4.469e-07 -0 0 -0 -3.8479 21.665 45.589 -12.631 -21.33 -8.4583 -2.3549 2.7416 -15.435 -0 0 -0 0 0 -3.2017e-07 -0 0 -0 
0 96.885 0 -0 0 -0 -3.9118 21.641 45.605 -7.2226 -5.5147 -2.3712 -7.2226 -5.5147 -2.3712 -6.0484 -4.6531 -1.9441 -0 0 -0 -0 0 -0 11.458 -4.5018 4.7955 -1.1412 -3.0532 -3.2301 -0 0 -0 14.845 -5.1706 -11.979 -10.003 -0.29437 -9.8728 176.24 33.405 84.592 5.5838 4.419 6.4512 -0.33385 -0.40266 4.9751 -3.9118 21.641 45.605 -8.3069 -24.675 -18.272 -2.5321 6.4522 18.387 -0 0 -0 -0 0 1.1339e-06 -0 0 -0 -3.9118 21.641 45.605 -12.569 -21.347 -8.4603 -2.3491 2.7379 -15.426 -0 0 -0 0 0 -6.1698e-08 -0 0 -0 
0 96.88 0 -0 0 -0 -3.966 21.617 45.621 -7.2028 -5.4985 -2.359 -7.2028 -5.4985 -2.359 -6.032 -4.6393 -1.9342 -0 0 -0 -0 0 -0 11.464 -4.5793 4.7662 -1.1644 -3.0316 -3.2308 -0 0 -0 14.84 -5.2407 -11.998 -10.002 -0.26096 -9.8605 176.24 33.425 84.583 5.5672 4.3731 6.429 -0.33584 -0.43334 4.96 -3.966 21.617 45.621 -8.2419 -24.682 -18.259 -2.5185 6.424 18.401 -0 0 -0 -0 0 1.0139e-06 -0 0 -0 -3.966 21.617 45.621 -12.514 -21.36 -8.4638 -2.3445 2.7375 -15.412 -0 0 -0 -0 0 8.421e-07 -0 0 -0 
0 96.875 0 -0 0 -0 -4.0066 21.591 45.634 -7.1872 -5.4785 -2.3458 -7.1872 -5.4785 -2.3458 -6.0191 -4.6224 -1.9233 -0 0 -0 -0 0 -0 11.476 -4.6579 4.7387 -1.1788 -3.0271 -3.2247 -0 0 -0 14.839 -5.3177 -12.03 -9.9968 -0.23818 -9.8608 176.23 33.439 84.548 5.5547 4.3214 6.4074 -0.33757 -0.46679 4.9464 -4.0066 21.591 45.634 -8.1858 -24.682 -18.245 -2.5052 6.4002 18.397 -0 0 -0 -2.1344e-07 -2.9818e-16 1.6008e-07 -0 0 -0 -4.0066 21.591 45.634 -12.468 -21.365 -8.4661 -2.3404 2.7434 -15.392 -0 0 -0 -5.3361e-08 -1.5103e-16 3.2433e-07 -0 0 -0 
0 96.87 0 -0 0 -0 -4.0401 21.564 45.637 -7.1719 -5.4569 -2.3311 -7.1719 -5.4569 -2.3311 -6.0063 -4.6041 -1.9113 -0 0 -0 -0 0 -0 11.485 -4.7336 4.6983 -1.1729 -3.0365 -3.1933 -0 0 -0 14.838 -5.3992 -12.061 -9.9894 -0.2255 -9.8642 176.23 33.447 84.53 5.5441 4.2687 6.3876 -0.33766 -0.49987 4.9358 -4.0401 21.564 45.637 -8.1328 -24.681 -18.228 -2.4946 6.3843 18.377 -0 0 -0 0 0 -9.8051e-07 -0 0 -0 -4.0401 21.564 45.637 -12.423 -21.365 -8.4628 -2.3393 2.7513 -15.371 -0 0 -0 -0 0 6.7702e-07 -0 0 -0 
0 96.865 0 -0 0 -0 -4.0727 21.541 45.636 -7.1574 -5.4379 -2.3169 -7.1574 -5.4379 -2.3169 -5.9943 -4.588 -1.8996 -0 0 -0 -0 0 -0 11.491 -4.8025 4.6427 -1.1519 -3.0515 -3.1468 -0 0 -0 14.838 -5.4788 -12.084 -9.9898 -0.2113 -9.8624 176.22 33.46 84.546 5.5378 4.2217 6.3669 -0.33387 -0.52942 4.9246 -4.0727 21.541 45.636 -8.0848 -24.688 -18.211 -2.4884 6.375 18.354 -0 0 -0 2.1344e-07 1.2673e-15 6.8035e-07 -0 0 -0 -4.0727 21.541 45.636 -12.378 -21.367 -8.4599 -2.34 2.7572 -15.353 -0 0 -0 -0 0 5.8697e-07 -0 0 -0 
0 96.86 0 -0 0 -0 -4.1051 21.528 45.638 -7.1463 -5.4214 -2.3069 -7.1463 -5.4214 -2.3069 -5.9851 -4.574 -1.8914 -0 0 -0 -0 0 -0 11.496 -4.867 4.5861 -1.1299 -3.0677 -3.102 -0 0 -0 14.844 -5.5563 -12.096 -9.9939 -0.19325 -9.8638 176.21 33.477 84.563 5.5392 4.1823 6.346 -0.32484 -0.55415 4.9106 -4.1051 21.528 45.638 -8.0461 -24.703 -18.201 -2.4857 6.3661 18.333 -0 0 -0 -0 0 1.5341e-07 -0 0 -0 -4.1051 21.528 45.638 -12.343 -21.373 -8.4663 -2.3373 2.7619 -15.331 -0 0 -0 0 0 -5.0943e-07 -0 0 -0 
0 96.855 0 -0 0 -0 -4.137 21.523 45.643 -7.1386 -5.4058 -2.3014 -7.1386 -5.4058 -2.3014 -5.9788 -4.5608 -1.887 -0 0 -0 -0 0 -0 11.504 -4.9315 4.5408 -1.1195 -3.0815 -3.0771 -0 0 -0 14.855 -5.6345 -12.1 -9.9919 -0.17693 -9.8737 176.21 33.491 84.559 5.5469 4.147 6.3268 -0.31215 -0.57611 4.8951 -4.137 21.523 45.643 -8.0135 -24.718 -18.196 -2.4853 6.3526 18.32 -0 0 -0 0 0 -2.6013e-07 -0 0 -0 -4.137 21.523 45.643 -12.318 -21.384 -8.4783 -2.3325 2.7669 -15.307 -0 0 -0 0 0 -3.5602e-07 -0 0 -0 
0 96.851 0 -0 0 -0 -4.1713 21.525 45.646 -7.1316 -5.3944 -2.2986 -7.1316 -5.3944 -2.2986 -5.9729 -4.5512 -1.8848 -0 0 -0 -0 0 -0 11.511 -4.9914 4.5118 -1.1222 -3.0893 -3.0785 -0 0 -0 14.866 -5.704 -12.097 -9.9879 -0.16082 -9.8866 176.21 33.501 84.55 5.5543 4.1168 6.3118 -0.29974 -0.59675 4.8819 -4.1713 21.525 45.646 -7.9814 -24.738 -18.191 -2.4864 6.3365 18.322 -0 0 -0 -0 0 5.2027e-07 -0 0 -0 -4.1713 21.525 45.646 -12.294 -21.402 -8.4884 -2.3296 2.7705 -15.289 -0 0 -0 0 0 -5.4528e-07 -0 0 -0 
0 96.846 0 -0 0 -0 -4.2101 21.531 45.647 -7.1239 -5.3926 -2.2957 -7.1239 -5.3926 -2.2957 -5.9666 -4.5497 -1.8824 -0 0 -0 -0 0 -0 11.518 -5.0355 4.4914 -1.1315 -3.0899 -3.0925 -0 0 -0 14.875 -5.7494 -12.098 -9.9859 -0.14535 -9.8947 176.2 33.51 84.551 5.5598 4.0995 6.299 -0.28855 -0.61238 4.8717 -4.2101 21.531 45.647 -7.9483 -24.767 -18.184 -2.4858 6.3209 18.337 -0 0 -0 0 0 -5.3361e-08 -0 0 -0 -4.2101 21.531 45.647 -12.268 -21.425 -8.4976 -2.3287 2.7686 -15.272 -0 0 -0 -0 0 4.0271e-07 -0 0 -0 
0 96.842 0 -0 0 -0 -4.25 21.539 45.647 -7.1171 -5.3994 -2.2913 -7.1171 -5.3994 -2.2913 -5.9608 -4.5553 -1.8788 -0 0 -0 -0 0 -0 11.523 -5.0611 4.4702 -1.139 -3.0874 -3.1044 -0 0 -0 14.884 -5.7696 -12.116 -9.9807 -0.135 -9.8966 176.17 33.521 84.554 5.5653 4.0976 6.2861 -0.27754 -0.61963 4.8635 -4.25 21.539 45.647 -7.9157 -24.796 -18.18 -2.4833 6.3059 18.355 -0 0 -0 -0 0 1.1039e-06 -0 0 -0 -4.25 21.539 45.647 -12.244 -21.453 -8.51 -2.3278 2.7645 -15.25 -0 0 -0 0 0 -7.5039e-09 -0 0 -0 
0 96.838 0 -0 0 -0 -4.2846 21.547 45.648 -7.1119 -5.4096 -2.2866 -7.1119 -5.4096 -2.2866 -5.9564 -4.5638 -1.8748 -0 0 -0 -0 0 -0 11.526 -5.0736 4.4471 -1.1399 -3.0911 -3.107 -0 0 -0 14.892 -5.7748 -12.145 -9.9676 -0.13496 -9.8957 176.14 33.525 84.554 5.5696 4.1037 6.2751 -0.26904 -0.62169 4.8576 -4.2846 21.547 45.648 -7.8877 -24.82 -18.179 -2.4814 6.293 18.368 -0 0 -0 -0 0 1.3107e-06 -0 0 -0 -4.2846 21.547 45.648 -12.228 -21.482 -8.5235 -2.326 2.7632 -15.226 -0 0 -0 0 0 -2.2345e-07 -0 0 -0 
0 96.835 0 -0 0 -0 -4.312 21.556 45.647 -7.1074 -5.4208 -2.283 -7.1074 -5.4208 -2.283 -5.9526 -4.5732 -1.8716 -0 0 -0 -0 0 -0 11.525 -5.0739 4.4227 -1.1376 -3.1061 -3.0959 -0 0 -0 14.9 -5.7725 -12.173 -9.9505 -0.14146 -9.8888 176.11 33.52 84.557 5.5722 4.1133 6.2674 -0.26261 -0.62117 4.8542 -4.312 21.556 45.647 -7.8668 -24.841 -18.179 -2.4797 6.285 18.374 -0 0 -0 0 0 -1.1206e-06 -0 0 -0 -4.312 21.556 45.647 -12.22 -21.51 -8.5335 -2.3232 2.7648 -15.203 -0 0 -0 0 0 -6.8369e-08 -0 0 -0 
0 96.832 0 -0 0 -0 -4.336 21.563 45.645 -7.1023 -5.4343 -2.2813 -7.1023 -5.4343 -2.2813 -5.9483 -4.5845 -1.8701 -0 0 -0 -0 0 -0 11.523 -5.0571 4.3997 -1.1392 -3.129 -3.0781 -0 0 -0 14.908 -5.7608 -12.196 -9.9341 -0.14404 -9.8741 176.08 33.515 84.564 5.5734 4.1283 6.2636 -0.25673 -0.61737 4.8532 -4.336 21.563 45.645 -7.849 -24.86 -18.175 -2.4786 6.2823 18.377 -0 0 -0 0 0 -1.6875e-06 -0 0 -0 -4.336 21.563 45.645 -12.214 -21.535 -8.5395 -2.3206 2.768 -15.183 -0 0 -0 -0 0 4.0521e-07 -0 0 -0 
0 96.829 0 -0 0 -0 -4.3609 21.569 45.646 -7.0971 -5.4508 -2.2816 -7.0971 -5.4508 -2.2816 -5.9438 -4.5983 -1.8703 -0 0 -0 -0 0 -0 11.52 -5.0249 4.384 -1.1474 -3.1525 -3.072 -0 0 -0 14.917 -5.7383 -12.216 -9.9168 -0.14117 -9.8587 176.06 33.513 84.567 5.5743 4.1498 6.2632 -0.25088 -0.60961 4.854 -4.3609 21.569 45.646 -7.8307 -24.88 -18.169 -2.479 6.2849 18.38 -0 0 -0 0 0 -1.5074e-06 -0 0 -0 -4.3609 21.569 45.646 -12.206 -21.559 -8.5458 -2.3192 2.7718 -15.166 -0 0 -0 0 0 -7.3705e-07 -0 0 -0 
0 96.826 0 -0 0 -0 -4.3882 21.577 45.65 -7.0928 -5.4688 -2.2831 -7.0928 -5.4688 -2.2831 -5.9402 -4.6135 -1.8714 -0 0 -0 -0 0 -0 11.52 -4.9873 4.3796 -1.1605 -3.171 -3.0859 -0 0 -0 14.928 -5.7105 -12.236 -9.8967 -0.13527 -9.8487 176.03 33.514 84.563 5.575 4.1762 6.2655 -0.24575 -0.59852 4.8568 -4.3882 21.577 45.65 -7.8138 -24.904 -18.162 -2.4781 6.2905 18.387 -0 0 -0 -0 0 1.4474e-06 -0 0 -0 -4.3882 21.577 45.65 -12.197 -21.585 -8.5553 -2.3186 2.7748 -15.15 -0 0 -0 -0 0 2.5013e-07 -0 0 -0 
0 96.824 0 -0 0 -0 -4.4169 21.588 45.654 -7.0893 -5.4861 -2.285 -7.0893 -5.4861 -2.285 -5.9372 -4.628 -1.8729 -0 0 -0 -0 0 -0 11.522 -4.9528 4.3825 -1.1738 -3.1835 -3.1082 -0 0 -0 14.939 -5.6841 -12.251 -9.8738 -0.12598 -9.8437 176.01 33.518 84.558 5.5746 4.2044 6.2709 -0.24232 -0.58484 4.8622 -4.4169 21.588 45.654 -7.799 -24.931 -18.157 -2.4759 6.297 18.396 -0 0 -0 -0 0 1.4741e-06 -0 0 -0 -4.4169 21.588 45.654 -12.189 -21.613 -8.5665 -2.3174 2.7755 -15.138 -0 0 -0 -0 0 5.8363e-07 -0 0 -0 
0 96.822 0 -0 0 -0 -4.4476 21.597 45.658 -7.0841 -5.5004 -2.2869 -7.0841 -5.5004 -2.2869 -5.9327 -4.6401 -1.8744 -0 0 -0 -0 0 -0 11.524 -4.9261 4.3858 -1.18 -3.1917 -3.1221 -0 0 -0 14.948 -5.6625 -12.259 -9.8528 -0.12194 -9.838 175.97 33.514 84.561 5.5711 4.2326 6.2783 -0.24058 -0.56873 4.869 -4.4476 21.597 45.658 -7.7817 -24.959 -18.154 -2.4749 6.3052 18.405 -0 0 -0 0 0 -1.5141e-06 -0 0 -0 -4.4476 21.597 45.658 -12.178 -21.639 -8.5785 -2.315 2.7707 -15.129 -0 0 -0 0 0 -5.111e-07 -0 0 -0 
0 96.819 0 -0 0 -0 -4.4825 21.605 45.666 -7.0763 -5.5157 -2.2899 -7.0763 -5.5157 -2.2899 -5.9261 -4.6529 -1.8768 -0 0 -0 -0 0 -0 11.523 -4.8999 4.3889 -1.1778 -3.197 -3.1252 -0 0 -0 14.954 -5.6371 -12.261 -9.8411 -0.13399 -9.8258 175.94 33.494 84.568 5.564 4.2637 6.2871 -0.24009 -0.55049 4.876 -4.4825 21.605 45.666 -7.7602 -24.988 -18.151 -2.4766 6.3142 18.412 -0 0 -0 -0 0 7.0036e-07 -0 0 -0 -4.4825 21.605 45.666 -12.164 -21.666 -8.5927 -2.3133 2.7611 -15.122 -0 0 -0 0 0 -5.8614e-07 -0 0 -0 
0 96.817 0 -0 0 -0 -4.522 21.618 45.677 -7.0683 -5.5413 -2.2953 -7.0683 -5.5413 -2.2953 -5.9192 -4.6744 -1.8812 -0 0 -0 -0 0 -0 11.517 -4.8511 4.3917 -1.1733 -3.2022 -3.1246 -0 0 -0 14.958 -5.5874 -12.264 -9.8348 -0.15499 -9.8084 175.92 33.467 84.569 5.5552 4.3042 6.2977 -0.24064 -0.53169 4.8838 -4.522 21.618 45.677 -7.7381 -25.022 -18.146 -2.4814 6.322 18.413 -0 0 -0 0 0 -1.3474e-06 -0 0 -0 -4.522 21.618 45.677 -12.149 -21.699 -8.6094 -2.3143 2.7487 -15.115 -0 0 -0 -0 0 1.8843e-07 -0 0 -0 
0 96.816 0 -0 0 -0 -4.5634 21.639 45.69 -7.0658 -5.58 -2.2982 -7.0658 -5.58 -2.2982 -5.917 -4.707 -1.8833 -0 0 -0 -0 0 -0 11.515 -4.7723 4.378 -1.1722 -3.2072 -3.1243 -0 0 -0 14.969 -5.5109 -12.285 -9.8304 -0.17582 -9.7923 175.92 33.44 84.56 5.5542 4.357 6.3007 -0.23792 -0.51144 4.8878 -4.5634 21.639 45.69 -7.7227 -25.064 -18.143 -2.4859 6.3308 18.415 -0 0 -0 0 0 -1.1739e-06 -0 0 -0 -4.5634 21.639 45.69 -12.141 -21.741 -8.627 -2.3153 2.7368 -15.111 -0 0 -0 0 0 -1.1256e-07 -0 0 -0 
